<svg version="1.1" id="Layer_1" xmlns="http://www.w3.org/2000/svg" xmlns:xlink="http://www.w3.org/1999/xlink" x="0px" y="0px"
	 viewBox="0 0 864 640" xml:space="preserve">
<path fill="#FFFFFF" opacity="1.000000" stroke="none" 
	d="
M224.715042,332.999939 
	C224.713974,292.168671 224.774887,251.837204 224.626144,211.506500 
	C224.609589,207.016983 225.816833,204.365601 229.924744,202.001938 
	C296.208313,163.862823 362.396667,125.557999 428.539276,87.174767 
	C432.473083,84.891945 435.399536,84.875443 439.456299,87.229759 
	C505.448242,125.527573 571.532654,163.666504 637.684021,201.688446 
	C641.817749,204.064362 643.410339,206.653015 643.400635,211.486206 
	C643.246460,288.148346 643.260742,364.810944 643.387878,441.473175 
	C643.394653,445.548309 642.025269,447.811523 638.589233,449.784241 
	C593.661255,475.578827 548.788757,501.470184 503.922913,527.372864 
	C482.571228,539.699951 461.198975,551.994263 439.989441,564.562317 
	C435.719177,567.092712 432.450439,567.156494 428.125763,564.643188 
	C362.010010,526.219177 295.819397,487.923737 229.566299,449.737061 
	C225.847382,447.593567 224.653580,445.128876 224.668182,440.992828 
	C224.794632,405.162262 224.725983,369.331024 224.715042,332.999939 
M604.910156,194.653473 
	C550.535706,163.249329 496.110870,131.931564 441.862823,100.310539 
	C436.294250,97.064636 432.160950,96.735367 426.482483,100.040024 
	C367.316803,134.472260 308.126892,168.868713 248.586456,202.645325 
	C238.665085,208.273605 232.612793,214.264297 234.631119,226.080170 
	C234.713638,226.563187 234.606232,227.076599 234.607758,227.575806 
	C234.712234,261.729919 234.926590,295.884094 234.894867,330.038086 
	C234.863159,364.186707 234.654999,398.335754 234.350052,432.483063 
	C234.296753,438.450531 236.247406,442.423615 241.747086,445.278046 
	C250.606934,449.876465 259.122345,455.139496 267.774994,460.135986 
	C320.854370,490.786926 373.973480,521.369568 426.941895,552.211121 
	C432.047150,555.183716 435.708191,555.260010 440.897217,552.236145 
	C502.634613,516.260376 564.495056,480.494812 626.463623,444.918610 
	C631.551514,441.997650 633.212524,438.732025 633.197998,433.064209 
	C633.026611,366.082794 633.080688,299.100830 633.096924,232.118988 
	C633.098267,226.628326 633.265808,221.137817 633.337708,215.647003 
	C633.381042,212.335953 631.906982,210.122803 628.928528,208.476959 
	C621.057739,204.127609 613.326294,199.526016 604.910156,194.653473 
z"/>
<path fill="#FFFFFF" opacity="1.000000" stroke="none" 
	d="
M241.693497,411.999939 
	C241.690826,348.014099 241.748199,284.528076 241.569397,221.042725 
	C241.555618,216.151840 243.300842,213.617523 247.363022,211.280807 
	C308.150085,176.314056 368.860504,141.214020 429.563141,106.100731 
	C432.350037,104.488663 434.631683,103.863716 437.811951,105.709175 
	C498.899109,141.156845 560.043945,176.505249 621.253296,211.741486 
	C624.883789,213.831451 626.386108,216.120590 626.379333,220.366241 
	C626.266602,291.016968 626.280579,361.667969 626.376892,432.318787 
	C626.381836,435.935333 625.214172,438.075104 622.073120,439.881500 
	C576.016602,466.368317 530.015686,492.951691 484.011261,519.528931 
	C468.867218,528.277832 453.704132,536.995789 438.658997,545.912170 
	C435.419708,547.831970 432.936310,547.990723 429.547394,546.024353 
	C368.460266,510.579742 307.305756,475.251007 246.111343,439.991791 
	C242.788345,438.077148 241.459198,435.809631 241.621063,431.991516 
	C241.896042,425.504944 241.694992,418.998230 241.693497,411.999939 
M310.287476,237.530655 
	C310.290405,256.018097 310.359955,274.505981 310.236267,292.992554 
	C310.213379,296.416901 311.270416,298.470825 314.438751,300.025665 
	C323.403748,304.425171 332.204407,309.158783 341.084198,313.732849 
	C380.897675,334.241211 420.809784,354.560730 460.502686,375.299774 
	C491.187805,391.332336 521.618958,407.852020 552.110352,424.252930 
	C555.742371,426.206482 557.351562,425.407654 557.616882,421.429047 
	C557.694336,420.267151 557.698425,419.098846 557.698669,417.933502 
	C557.702209,398.779694 557.561707,379.624146 557.797363,360.473267 
	C557.854980,355.791626 556.191284,353.270294 552.076355,351.181610 
	C514.818420,332.270294 477.582092,313.313202 440.488464,294.082184 
	C419.361267,283.128937 398.454254,271.744751 377.464478,260.528564 
	C356.619202,249.389603 335.666412,238.450500 314.978241,227.014847 
	C313.737366,226.328934 312.465668,225.247849 310.700104,226.218170 
	C309.804901,229.585999 310.475708,233.090454 310.287476,237.530655 
M483.788788,170.752899 
	C469.673828,163.991531 456.084473,156.169785 441.629883,150.074921 
	C438.251495,148.650406 435.823120,149.198685 432.910736,150.964890 
	C416.672150,160.812576 400.345734,170.515656 384.038666,180.250229 
	C366.302582,190.837845 348.527008,201.359802 330.841614,212.031296 
	C328.143036,213.659622 324.775177,214.799698 323.567261,218.588715 
	C324.429138,219.066330 325.121002,219.782013 325.813782,219.782944 
	C333.876251,219.793655 341.543427,222.454453 349.519409,223.185883 
	C358.303772,223.991486 367.023102,226.798279 372.775696,233.435959 
	C377.375183,238.743149 381.829620,244.472549 385.670776,250.485504 
	C387.615601,253.529953 389.517517,254.203598 392.597137,252.228470 
	C399.608704,247.731552 406.805420,243.518860 413.751495,238.925491 
	C422.423859,233.190536 432.060791,228.857452 439.643188,221.238617 
	C443.247559,222.095596 443.768127,226.317200 447.219482,227.897003 
	C458.414917,233.021454 469.219421,238.993622 480.235809,244.516953 
	C503.766724,256.314789 527.332031,268.044128 550.893127,279.781708 
	C555.896118,282.274109 557.445129,281.387970 557.882690,275.887634 
	C557.961914,274.892273 557.971375,273.889343 557.970459,272.889954 
	C557.952454,253.225159 557.791870,233.558853 558.006714,213.896667 
	C558.056641,209.327209 556.257812,207.027390 552.371704,205.106674 
	C529.672302,193.887207 507.069550,182.472092 483.788788,170.752899 
M405.355896,416.212585 
	C376.159729,401.648376 346.958527,387.094208 317.771179,372.512329 
	C311.177124,369.217987 310.113525,369.822998 310.104248,377.359375 
	C310.079498,397.510345 310.222229,417.662476 310.024719,437.811462 
	C309.981232,442.246674 311.432312,444.677917 315.456055,446.678711 
	C349.441986,463.578369 383.323730,480.687683 417.227234,497.752930 
	C421.465057,499.886047 425.781067,503.297882 428.561279,496.048065 
	C431.097656,498.223328 428.158417,500.975250 430.163208,502.894745 
	C431.978912,503.142548 433.244141,501.851837 434.607300,501.041718 
	C459.940887,485.986328 485.246826,470.884491 510.549164,455.776642 
	C514.979614,453.131226 519.433411,450.515625 523.755554,447.700684 
	C527.800293,445.066406 527.712585,443.634705 524.299866,440.470795 
	C521.248413,437.641693 517.782410,436.698517 513.762573,436.996307 
	C504.786957,437.661163 497.375824,433.940552 491.406830,427.774689 
	C485.820190,422.003784 482.422272,414.148407 474.743896,410.331909 
	C474.347198,410.134735 474.121002,409.567230 473.849365,409.150085 
	C470.238098,403.605225 469.739655,403.387512 464.168213,406.807831 
	C453.669617,413.253052 443.251556,419.829742 432.816223,426.377594 
	C430.773132,427.659607 429.012085,428.495209 426.427917,427.054474 
	C419.748627,423.330688 412.852356,419.996094 405.355896,416.212585 
z"/>
</svg>
