<svg xmlns="http://www.w3.org/2000/svg" viewBox="0 0 128 128">
  <rect fill="#3178c6" width="128" height="128" rx="8"/>
  <path fill="#fff" d="M82.96 98.9v14.2c2.31 1.19 5.04 2.08 8.19 2.68 3.15.6 6.47.9 9.97.9 3.38 0 6.58-.33 9.58-.99 3.01-.66 5.64-1.72 7.88-3.18 2.25-1.46 4.02-3.35 5.32-5.67 1.3-2.32 1.95-5.13 1.95-8.42 0-2.39-.36-4.49-1.09-6.31-.73-1.82-1.77-3.45-3.14-4.91-1.36-1.46-3-2.8-4.92-4.02-1.92-1.22-4.06-2.38-6.43-3.48-1.72-.8-3.26-1.57-4.63-2.29-1.36-.73-2.52-1.46-3.47-2.19-.95-.73-1.69-1.5-2.2-2.31-.51-.8-.77-1.69-.77-2.66 0-.9.23-1.71.68-2.42.46-.72 1.1-1.33 1.94-1.85.84-.51 1.85-.91 3.04-1.18 1.18-.28 2.49-.42 3.92-.42 1.04 0 2.14.08 3.29.24 1.15.16 2.31.41 3.48.76 1.17.35 2.31.79 3.43 1.33 1.12.54 2.16 1.17 3.12 1.9V54.57c-1.86-.74-3.89-1.28-6.09-1.63-2.2-.34-4.68-.51-7.44-.51-3.36 0-6.52.36-9.48 1.09-2.96.73-5.54 1.83-7.74 3.31-2.2 1.48-3.94 3.34-5.22 5.58-1.28 2.24-1.92 4.88-1.92 7.92 0 3.94 1.17 7.3 3.5 10.08 2.33 2.79 5.75 5.19 10.26 7.22 1.78.8 3.43 1.57 4.95 2.31 1.52.74 2.83 1.5 3.93 2.27 1.1.78 1.97 1.61 2.59 2.49.63.88.94 1.87.94 2.96 0 .85-.2 1.63-.6 2.33-.4.71-.99 1.31-1.76 1.82-.77.51-1.73.9-2.86 1.18-1.14.28-2.44.42-3.91.42-2.55 0-5.07-.46-7.55-1.37-2.49-.92-4.79-2.27-6.91-4.04zm-26.71-47.86h15.47v-13.2H43.69v13.2h15.49v51.54h12.08V51.04z"/>
</svg>
